<svg width="900" height="900" viewBox="0 0 900 900" fill="none" xmlns="http://www.w3.org/2000/svg">
<path d="M0 0H900V900H0V0Z" fill="black"/>
<path fill-rule="evenodd" clip-rule="evenodd" d="M366.5 250C366.5 222.662 388.662 200.5 416 200.5C443.338 200.5 465.5 222.662 465.5 250C465.5 269.798 453.877 286.886 437.072 294.804L435.964 295.326L435.698 296.521C431.543 315.136 434.248 333.962 440.318 351.158L440.8 352.524L442.225 352.785C453.41 354.832 463.767 359.25 472.757 365.501L473.928 366.314L475.224 365.722C515.682 347.223 541.513 310.567 555.387 279.75L555.721 279.007L555.554 278.211C554.863 274.918 554.5 271.503 554.5 268C554.5 240.662 576.662 218.5 604 218.5C631.338 218.5 653.5 240.662 653.5 268C653.5 295.338 631.338 317.5 604 317.5C600.638 317.5 597.357 317.165 594.188 316.528L593.476 316.385L592.798 316.646C560.597 329.034 537.104 349.8 520.528 372H526.817C542.654 351.722 564.541 333.029 593.926 321.57C597.193 322.181 600.56 322.5 604 322.5C634.1 322.5 658.5 298.1 658.5 268C658.5 237.9 634.1 213.5 604 213.5C573.9 213.5 549.5 237.9 549.5 268C549.5 271.564 549.842 275.05 550.497 278.427C536.975 308.142 512.331 342.736 474.421 360.583C465.53 354.626 455.429 350.33 444.565 348.143C439.174 332.312 436.893 315.386 440.326 298.783C458.21 289.848 470.5 271.362 470.5 250C470.5 219.9 446.1 195.5 416 195.5C385.9 195.5 361.5 219.9 361.5 250C361.5 269.036 371.262 285.791 386.041 295.534C389.579 311.356 390.224 332.411 383.266 359.482C381.01 360.916 378.828 362.455 376.727 364.092C351.287 357.627 322.361 344.619 300.49 321.073C300.497 320.716 300.5 320.359 300.5 320C300.5 289.9 276.1 265.5 246 265.5C215.9 265.5 191.5 289.9 191.5 320C191.5 350.1 215.9 374.5 246 374.5C250.798 374.5 255.455 373.879 259.893 372.713C290.311 380.9 325.218 397.279 344.606 425.747C344.536 427.156 344.5 428.574 344.5 430C344.5 437.141 345.397 444.076 347.086 450.698C330.454 473.188 307.868 485.316 287.06 491.15C280.313 488.16 272.847 486.5 265 486.5C234.9 486.5 210.5 510.9 210.5 541C210.5 571.1 234.9 595.5 265 595.5C295.1 595.5 319.5 571.1 319.5 541C319.5 539.881 319.466 538.769 319.4 537.667C343.23 514.263 362.788 502.215 377.985 496.87C382.851 500.515 388.128 503.641 393.735 506.168C398.844 545.772 382.767 580.547 363.935 604.928C343.241 612.657 328.5 632.604 328.5 656C328.5 686.1 352.9 710.5 383 710.5C413.1 710.5 437.5 686.1 437.5 656C437.5 643.112 433.023 631.263 425.542 621.932C423.116 575.857 435.933 537.459 450.994 510.293C451.879 510.04 452.758 509.773 453.63 509.492C468.7 522.836 486.15 543.393 500.945 573.889C498.717 579.839 497.5 586.28 497.5 593C497.5 623.1 521.9 647.5 552 647.5C582.1 647.5 606.5 623.1 606.5 593C606.5 564.071 583.962 540.408 555.485 538.61C541.191 530.34 525.127 518.954 511.363 505H504.438C519.506 521.188 537.7 534.151 553.503 543.239L554.022 543.537L554.62 543.568C580.739 544.929 601.5 566.541 601.5 593C601.5 620.338 579.338 642.5 552 642.5C524.662 642.5 502.5 620.338 502.5 593C502.5 586.532 503.739 580.36 505.991 574.703L506.396 573.685L505.922 572.697C490.456 540.475 472.004 518.892 456.093 505H451.252C450.395 505.265 449.531 505.516 448.662 505.753L447.651 506.028L447.138 506.941C431.39 534.995 417.883 574.964 420.594 623.021L420.641 623.841L421.164 624.474C428.246 633.037 432.5 644.018 432.5 656C432.5 683.338 410.338 705.5 383 705.5C355.662 705.5 333.5 683.338 333.5 656C333.5 634.522 347.181 616.232 366.312 609.383L366.995 609.138L367.441 608.566C387.182 583.233 404.462 546.369 398.501 504.095L398.304 502.703L397.013 502.148C390.891 499.515 385.171 496.125 379.969 492.096L378.914 491.279L377.648 491.7C361.141 497.196 340.256 510.006 315.066 534.917L314.237 535.737L314.333 536.899C314.443 538.251 314.5 539.618 314.5 541C314.5 568.338 292.338 590.5 265 590.5C237.662 590.5 215.5 568.338 215.5 541C215.5 513.662 237.662 491.5 265 491.5C272.435 491.5 279.48 493.137 285.801 496.069L286.63 496.453L287.511 496.213C309.669 490.171 334.089 477.228 351.832 452.677L352.531 451.711L352.219 450.56C350.447 444.009 349.5 437.117 349.5 430C349.5 428.387 349.549 426.785 349.644 425.196L349.695 424.357L349.228 423.658C328.798 393.059 291.786 376.019 260.533 367.708L259.878 367.534L259.225 367.714C255.018 368.878 250.584 369.5 246 369.5C218.662 369.5 196.5 347.338 196.5 320C196.5 292.662 218.662 270.5 246 270.5C273.338 270.5 295.5 292.662 295.5 320C295.5 320.644 295.488 321.286 295.463 321.924L295.424 322.949L296.116 323.706C319.279 349.046 350.119 362.669 376.712 369.243L377.913 369.54L378.878 368.765C381.381 366.754 384.01 364.894 386.751 363.198L387.601 362.672L387.854 361.706C395.413 332.887 394.661 310.384 390.686 293.415L390.452 292.419L389.587 291.872C375.708 283.098 366.5 267.623 366.5 250ZM152.5 425C152.5 409.26 165.26 396.5 181 396.5C196.74 396.5 209.5 409.26 209.5 425C209.5 440.74 196.74 453.5 181 453.5C165.26 453.5 152.5 440.74 152.5 425ZM181 391.5C162.498 391.5 147.5 406.498 147.5 425C147.5 443.502 162.498 458.5 181 458.5C199.502 458.5 214.5 443.502 214.5 425C214.5 406.498 199.502 391.5 181 391.5Z" fill="black"/>
<path fill-rule="evenodd" clip-rule="evenodd" d="M365.5 250C365.5 222.11 388.11 199.5 416 199.5C443.89 199.5 466.5 222.11 466.5 250C466.5 270.199 454.641 287.632 437.498 295.709L436.834 296.022L436.674 296.739C432.57 315.121 435.234 333.751 441.261 350.825L441.55 351.645L442.405 351.802C453.734 353.875 464.223 358.349 473.328 364.68L474.03 365.168L474.808 364.812C514.964 346.452 540.656 310.035 554.475 279.339L554.675 278.894L554.575 278.416C553.871 275.056 553.5 271.572 553.5 268C553.5 240.11 576.11 217.5 604 217.5C631.89 217.5 654.5 240.11 654.5 268C654.5 295.89 631.89 318.5 604 318.5C600.572 318.5 597.225 318.159 593.991 317.508L593.563 317.423L593.157 317.579C561.452 329.777 538.234 350.151 521.777 372H525.551C541.564 351.305 563.818 332.175 593.831 320.535C597.124 321.168 600.524 321.5 604 321.5C633.547 321.5 657.5 297.547 657.5 268C657.5 238.453 633.547 214.5 604 214.5C574.453 214.5 550.5 238.453 550.5 268C550.5 271.61 550.858 275.137 551.54 278.549C537.931 308.583 512.952 343.758 474.331 361.729C465.282 355.576 454.944 351.174 443.806 349.013C438.188 332.756 435.784 315.27 439.447 298.102C457.239 289.413 469.5 271.14 469.5 250C469.5 220.453 445.547 196.5 416 196.5C386.453 196.5 362.5 220.453 362.5 250C362.5 268.83 372.229 285.387 386.928 294.919C390.598 311.026 391.293 332.493 384.135 360.115C381.65 361.678 379.254 363.37 376.957 365.181C351.177 358.702 321.692 345.522 299.481 321.456C299.493 320.972 299.5 320.487 299.5 320C299.5 290.453 275.547 266.5 246 266.5C216.453 266.5 192.5 290.453 192.5 320C192.5 349.547 216.453 373.5 246 373.5C250.804 373.5 255.462 372.866 259.895 371.678C290.56 379.892 326.019 396.449 345.623 425.464C345.541 426.966 345.5 428.478 345.5 430C345.5 437.222 346.428 444.229 348.173 450.908C331.261 473.989 308.164 486.336 286.981 492.21C280.274 489.184 272.832 487.5 265 487.5C235.453 487.5 211.5 511.453 211.5 541C211.5 570.547 235.453 594.5 265 594.5C294.547 594.5 318.5 570.547 318.5 541C318.5 539.748 318.457 538.506 318.372 537.274C342.678 513.337 362.637 501.093 378.161 495.75C383.231 499.599 388.761 502.876 394.654 505.483C400.048 545.791 383.645 581.133 364.55 605.767C344.096 613.282 329.5 632.934 329.5 656C329.5 685.547 353.453 709.5 383 709.5C412.547 709.5 436.5 685.547 436.5 656C436.5 643.232 432.026 631.506 424.561 622.309C422.035 575.665 435.063 536.829 450.322 509.444C451.513 509.11 452.694 508.75 453.863 508.364C469.191 521.838 486.998 542.719 502.033 573.841C499.75 579.791 498.5 586.251 498.5 593C498.5 622.547 522.453 646.5 552 646.5C581.547 646.5 605.5 622.547 605.5 593C605.5 564.523 583.252 541.244 555.189 539.594C540.561 531.151 524.029 519.429 509.962 505H505.808C520.657 520.771 538.469 533.44 554.002 542.372L554.313 542.551L554.672 542.569C581.319 543.958 602.5 566.006 602.5 593C602.5 620.89 579.89 643.5 552 643.5C524.11 643.5 501.5 620.89 501.5 593C501.5 586.404 502.764 580.106 505.062 574.334L505.305 573.723L505.02 573.13C489.534 540.865 471.054 519.333 455.187 505.536L454.57 505H454.445L453.717 505.249C452.142 505.787 450.543 506.277 448.925 506.718L448.318 506.883L448.01 507.431C432.338 535.348 418.894 575.129 421.593 622.965L421.62 623.457L421.934 623.836C429.16 632.572 433.5 643.777 433.5 656C433.5 683.89 410.89 706.5 383 706.5C355.11 706.5 332.5 683.89 332.5 656C332.5 634.086 346.459 615.429 365.975 608.441L366.385 608.295L366.652 607.951C386.292 582.747 403.421 546.15 397.51 504.235L397.393 503.4L396.618 503.066C390.418 500.4 384.624 496.967 379.357 492.886L378.724 492.396L377.964 492.649C361.65 498.081 340.892 510.782 315.77 535.628L315.272 536.12L315.329 536.817C315.442 538.196 315.5 539.591 315.5 541C315.5 568.89 292.89 591.5 265 591.5C237.11 591.5 214.5 568.89 214.5 541C214.5 513.11 237.11 490.5 265 490.5C272.583 490.5 279.772 492.17 286.222 495.162L286.719 495.392L287.248 495.248C309.241 489.251 333.443 476.415 351.022 452.091L351.441 451.511L351.254 450.821C349.458 444.186 348.5 437.206 348.5 430C348.5 428.367 348.549 426.745 348.646 425.136L348.677 424.633L348.396 424.213C328.167 393.915 291.441 376.962 260.276 368.674L259.883 368.57L259.491 368.678C255.198 369.865 250.675 370.5 246 370.5C218.11 370.5 195.5 347.89 195.5 320C195.5 292.11 218.11 269.5 246 269.5C273.89 269.5 296.5 292.11 296.5 320C296.5 320.657 296.487 321.311 296.463 321.962L296.439 322.577L296.854 323.031C319.842 348.18 350.481 361.728 376.952 368.272L377.673 368.45L378.252 367.985C380.787 365.949 383.449 364.065 386.225 362.347L386.735 362.032L386.887 361.452C394.408 332.778 393.647 310.441 389.712 293.643L389.572 293.046L389.053 292.718C374.896 283.768 365.5 267.981 365.5 250ZM151.5 425C151.5 408.708 164.708 395.5 181 395.5C197.292 395.5 210.5 408.708 210.5 425C210.5 441.292 197.292 454.5 181 454.5C164.708 454.5 151.5 441.292 151.5 425ZM181 392.5C163.051 392.5 148.5 407.051 148.5 425C148.5 442.949 163.051 457.5 181 457.5C198.949 457.5 213.5 442.949 213.5 425C213.5 407.051 198.949 392.5 181 392.5Z" fill="black"/>
<path d="M437.498 295.709L436.433 293.448L437.498 295.709ZM436.834 296.022L435.768 293.761L434.66 294.283L434.394 295.478L436.834 296.022ZM436.674 296.739L439.113 297.284L439.114 297.284L436.674 296.739ZM441.261 350.825L443.618 349.993V349.993L441.261 350.825ZM441.55 351.645L439.193 352.477L439.675 353.843L441.1 354.104L441.55 351.645ZM442.405 351.802L441.955 354.261L442.405 351.802ZM473.328 364.68L471.901 366.732V366.732L473.328 364.68ZM474.03 365.168L472.603 367.221L473.774 368.034L475.07 367.441L474.03 365.168ZM474.808 364.812L475.848 367.086L475.848 367.086L474.808 364.812ZM554.475 279.339L552.195 278.313L552.195 278.313L554.475 279.339ZM554.675 278.894L556.955 279.92L557.289 279.178L557.122 278.381L554.675 278.894ZM554.575 278.416L552.128 278.929L552.128 278.929L554.575 278.416ZM593.991 317.508L594.484 315.058V315.058L593.991 317.508ZM593.563 317.423L594.056 314.972L593.344 314.828L592.666 315.089L593.563 317.423ZM593.157 317.579L592.259 315.246L593.157 317.579ZM521.777 372L519.78 370.496L516.765 374.5H521.777V372ZM525.551 372V374.5H526.777L527.528 373.53L525.551 372ZM593.831 320.535L594.304 318.08L593.598 317.944L592.927 318.204L593.831 320.535ZM551.54 278.549L553.817 279.581L554.149 278.848L553.991 278.058L551.54 278.549ZM474.331 361.729L472.926 363.796L474.099 364.594L475.386 363.995L474.331 361.729ZM443.806 349.013L441.443 349.829L441.914 351.192L443.329 351.467L443.806 349.013ZM439.447 298.102L438.35 295.855L437.256 296.389L437.002 297.58L439.447 298.102ZM386.928 294.919L389.365 294.363L389.14 293.374L388.288 292.821L386.928 294.919ZM384.135 360.115L385.466 362.231L386.306 361.703L386.555 360.742L384.135 360.115ZM376.957 365.181L376.348 367.606L377.54 367.906L378.505 367.145L376.957 365.181ZM299.481 321.456L296.981 321.389L296.954 322.404L297.643 323.151L299.481 321.456ZM259.895 371.678L260.542 369.263L259.894 369.089L259.247 369.263L259.895 371.678ZM345.623 425.464L348.119 425.599L348.164 424.76L347.694 424.064L345.623 425.464ZM348.173 450.908L350.189 452.385L350.892 451.426L350.592 450.276L348.173 450.908ZM286.981 492.21L285.953 494.489L286.778 494.861L287.649 494.619L286.981 492.21ZM318.372 537.274L316.618 535.493L315.799 536.3L315.878 537.446L318.372 537.274ZM378.161 495.75L379.672 493.759L378.609 492.951L377.347 493.386L378.161 495.75ZM394.654 505.483L397.132 505.151L396.946 503.763L395.665 503.196L394.654 505.483ZM364.55 605.767L365.413 608.113L366.087 607.866L366.526 607.298L364.55 605.767ZM424.561 622.309L422.065 622.444L422.109 623.254L422.62 623.884L424.561 622.309ZM450.322 509.444L449.647 507.037L448.645 507.318L448.138 508.227L450.322 509.444ZM453.863 508.364L455.514 506.487L454.439 505.542L453.08 505.99L453.863 508.364ZM502.033 573.841L504.367 574.737L504.755 573.727L504.284 572.754L502.033 573.841ZM555.189 539.594L553.94 541.759L554.452 542.055L555.042 542.089L555.189 539.594ZM509.962 505L511.753 503.255L511.017 502.5H509.962V505ZM505.808 505V502.5H500.02L503.988 506.714L505.808 505ZM554.002 542.372L552.756 544.539L552.756 544.539L554.002 542.372ZM554.313 542.551L553.067 544.718L553.586 545.016L554.183 545.047L554.313 542.551ZM554.672 542.569L554.802 540.073L554.672 542.569ZM505.062 574.334L502.739 573.409V573.409L505.062 574.334ZM505.305 573.723L507.628 574.647L508.033 573.629L507.559 572.641L505.305 573.723ZM505.02 573.13L507.274 572.048L505.02 573.13ZM455.187 505.536L456.827 503.65L455.187 505.536ZM454.57 505L456.21 503.113L455.505 502.5H454.57V505ZM454.445 505V502.5H454.03L453.637 502.634L454.445 505ZM453.717 505.249L454.526 507.614H454.526L453.717 505.249ZM448.925 506.718L448.268 504.306L448.268 504.306L448.925 506.718ZM448.318 506.883L447.662 504.471L446.651 504.746L446.138 505.659L448.318 506.883ZM448.01 507.431L445.831 506.207L445.831 506.207L448.01 507.431ZM421.593 622.965L424.089 622.824V622.824L421.593 622.965ZM421.62 623.457L419.124 623.597L419.171 624.417L419.694 625.05L421.62 623.457ZM421.934 623.836L423.861 622.243L423.861 622.243L421.934 623.836ZM365.975 608.441L366.817 610.795L366.817 610.795L365.975 608.441ZM366.385 608.295L367.227 610.648L367.911 610.404L368.357 609.831L366.385 608.295ZM366.652 607.951L368.624 609.488L368.624 609.488L366.652 607.951ZM397.51 504.235L395.035 504.584L397.51 504.235ZM397.393 503.4L399.868 503.051L399.672 501.658L398.38 501.103L397.393 503.4ZM396.618 503.066L395.63 505.363L395.63 505.363L396.618 503.066ZM379.357 492.886L380.888 490.91L380.888 490.91L379.357 492.886ZM378.724 492.396L380.255 490.42L379.2 489.603L377.934 490.024L378.724 492.396ZM377.964 492.649L378.754 495.021L377.964 492.649ZM315.77 535.628L314.012 533.851H314.012L315.77 535.628ZM315.272 536.12L313.514 534.342L312.685 535.162L312.781 536.324L315.272 536.12ZM315.329 536.817L317.821 536.613L317.821 536.613L315.329 536.817ZM286.222 495.162L285.17 497.43L285.17 497.43L286.222 495.162ZM286.719 495.392L285.667 497.66L286.496 498.045L287.377 497.804L286.719 495.392ZM287.248 495.248L287.906 497.66L287.906 497.66L287.248 495.248ZM351.022 452.091L348.995 450.627V450.627L351.022 452.091ZM351.441 451.511L353.467 452.976L354.165 452.009L353.854 450.858L351.441 451.511ZM351.254 450.821L353.667 450.168V450.168L351.254 450.821ZM348.646 425.136L351.142 425.287L351.142 425.287L348.646 425.136ZM348.677 424.633L351.172 424.783L351.223 423.944L350.756 423.244L348.677 424.633ZM348.396 424.213L350.476 422.825L350.476 422.825L348.396 424.213ZM260.276 368.674L260.919 366.258H260.919L260.276 368.674ZM259.883 368.57L260.526 366.154L259.871 365.979L259.217 366.16L259.883 368.57ZM259.491 368.678L258.825 366.269H258.825L259.491 368.678ZM296.463 321.962L298.961 322.057V322.057L296.463 321.962ZM296.439 322.577L293.941 322.481L293.902 323.506L294.594 324.264L296.439 322.577ZM296.854 323.031L295.009 324.718V324.718L296.854 323.031ZM376.952 368.272L377.552 365.845L376.952 368.272ZM377.673 368.45L377.073 370.877L378.274 371.174L379.239 370.399L377.673 368.45ZM378.252 367.985L379.817 369.934L379.817 369.934L378.252 367.985ZM386.225 362.347L387.541 364.473L387.541 364.473L386.225 362.347ZM386.735 362.032L388.05 364.158L388.9 363.632L389.153 362.666L386.735 362.032ZM386.887 361.452L389.305 362.087V362.087L386.887 361.452ZM389.712 293.643L387.278 294.213V294.214L389.712 293.643ZM389.572 293.046L392.006 292.475L391.773 291.479L390.908 290.932L389.572 293.046ZM389.053 292.718L390.389 290.604L390.389 290.604L389.053 292.718ZM416 197C386.729 197 363 220.729 363 250H368C368 223.49 389.49 202 416 202V197ZM469 250C469 220.729 445.271 197 416 197V202C442.51 202 464 223.49 464 250H469ZM438.564 297.971C456.549 289.496 469 271.203 469 250H464C464 269.196 452.732 285.768 436.433 293.448L438.564 297.971ZM437.899 298.284L438.564 297.971L436.433 293.448L435.768 293.761L437.899 298.284ZM439.114 297.284L439.274 296.567L434.394 295.478L434.234 296.195L439.114 297.284ZM443.618 349.993C437.699 333.223 435.14 315.083 439.113 297.284L434.234 296.195C430.001 315.158 432.769 334.279 438.903 351.658L443.618 349.993ZM443.908 350.813L443.618 349.993L438.903 351.657L439.193 352.477L443.908 350.813ZM442.855 349.342L442 349.186L441.1 354.104L441.955 354.261L442.855 349.342ZM474.755 362.627C465.365 356.098 454.543 351.481 442.855 349.342L441.955 354.261C452.924 356.268 463.082 360.601 471.901 366.732L474.755 362.627ZM475.458 363.115L474.755 362.627L471.901 366.732L472.603 367.221L475.458 363.115ZM473.769 362.539L472.991 362.894L475.07 367.441L475.848 367.086L473.769 362.539ZM552.195 278.313C538.514 308.703 513.169 344.524 473.769 362.539L475.848 367.086C516.759 348.38 542.799 311.366 556.754 280.366L552.195 278.313ZM552.396 277.868L552.195 278.313L556.754 280.366L556.955 279.92L552.396 277.868ZM552.128 278.929L552.229 279.407L557.122 278.381L557.022 277.903L552.128 278.929ZM551 268C551 271.745 551.389 275.401 552.128 278.929L557.022 277.903C556.353 274.711 556 271.399 556 268H551ZM604 215C574.729 215 551 238.729 551 268H556C556 241.49 577.49 220 604 220V215ZM657 268C657 238.729 633.271 215 604 215V220C630.51 220 652 241.49 652 268H657ZM604 321C633.271 321 657 297.271 657 268H652C652 294.51 630.51 316 604 316V321ZM593.498 319.959C596.893 320.642 600.405 321 604 321V316C600.738 316 597.556 315.675 594.484 315.058L593.498 319.959ZM593.071 319.874L593.498 319.959L594.484 315.058L594.056 314.972L593.071 319.874ZM594.054 319.912L594.461 319.756L592.666 315.089L592.259 315.246L594.054 319.912ZM523.774 373.504C539.999 351.964 562.857 331.915 594.054 319.912L592.259 315.246C560.047 327.639 536.469 348.339 519.78 370.496L523.774 373.504ZM521.777 374.5H525.551V369.5H521.777V374.5ZM592.927 318.204C562.424 330.034 539.819 349.475 523.574 370.47L527.528 373.53C543.31 353.134 565.211 334.316 594.735 322.865L592.927 318.204ZM604 319C600.684 319 597.442 318.684 594.304 318.08L593.359 322.989C596.807 323.653 600.365 324 604 324V319ZM655 268C655 296.167 632.167 319 604 319V324C634.928 324 660 298.928 660 268H655ZM604 217C632.167 217 655 239.833 655 268H660C660 237.072 634.928 212 604 212V217ZM553 268C553 239.833 575.833 217 604 217V212C573.072 212 548 237.072 548 268H553ZM553.991 278.058C553.341 274.807 553 271.444 553 268H548C548 271.775 548.374 275.467 549.089 279.039L553.991 278.058ZM475.386 363.995C514.748 345.68 540.071 309.919 553.817 279.581L549.263 277.517C535.792 307.247 511.156 341.836 473.276 359.462L475.386 363.995ZM443.329 351.467C454.127 353.562 464.15 357.829 472.926 363.796L475.737 359.661C466.414 353.322 455.76 348.786 444.282 346.559L443.329 351.467ZM437.002 297.58C433.219 315.312 435.722 333.272 441.443 349.829L446.168 348.196C440.655 332.239 438.349 315.229 441.892 298.623L437.002 297.58ZM467 250C467 270.148 455.317 287.57 438.35 295.855L440.544 300.348C459.161 291.256 472 272.131 472 250H467ZM416 199C444.167 199 467 221.833 467 250H472C472 219.072 446.928 194 416 194V199ZM365 250C365 221.833 387.833 199 416 199V194C385.072 194 360 219.072 360 250H365ZM388.288 292.821C374.27 283.73 365 267.947 365 250H360C360 269.712 370.188 287.043 385.567 297.016L388.288 292.821ZM386.555 360.742C393.805 332.765 393.131 310.892 389.365 294.363L384.49 295.474C388.065 311.161 388.781 332.221 381.715 359.488L386.555 360.742ZM378.505 367.145C380.733 365.388 383.056 363.747 385.466 362.231L382.804 357.999C380.244 359.609 377.776 361.352 375.409 363.218L378.505 367.145ZM297.643 323.151C320.287 347.685 350.267 361.051 376.348 367.606L377.567 362.757C352.087 356.353 323.098 343.359 301.318 319.76L297.643 323.151ZM297 320C297 320.464 296.994 320.927 296.981 321.389L301.98 321.522C301.993 321.016 302 320.509 302 320H297ZM246 269C274.167 269 297 291.833 297 320H302C302 289.072 276.928 264 246 264V269ZM195 320C195 291.833 217.833 269 246 269V264C215.072 264 190 289.072 190 320H195ZM246 371C217.833 371 195 348.167 195 320H190C190 350.928 215.072 376 246 376V371ZM259.247 369.263C255.024 370.396 250.583 371 246 371V376C251.025 376 255.901 375.337 260.543 374.092L259.247 369.263ZM347.694 424.064C327.591 394.31 291.429 377.537 260.542 369.263L259.248 374.092C289.692 382.248 324.447 398.587 343.551 426.863L347.694 424.064ZM348 430C348 428.523 348.04 427.056 348.119 425.599L343.126 425.328C343.042 426.875 343 428.433 343 430H348ZM350.592 450.276C348.901 443.802 348 437.007 348 430H343C343 437.437 343.956 444.656 345.754 451.539L350.592 450.276ZM287.649 494.619C309.239 488.633 332.871 476.021 350.189 452.385L346.156 449.43C329.65 471.957 307.09 484.04 286.313 489.801L287.649 494.619ZM265 490C272.47 490 279.562 491.605 285.953 494.489L288.01 489.931C280.985 486.762 273.193 485 265 485V490ZM214 541C214 512.833 236.833 490 265 490V485C234.072 485 209 510.072 209 541H214ZM265 592C236.833 592 214 569.167 214 541H209C209 571.928 234.072 597 265 597V592ZM316 541C316 569.167 293.167 592 265 592V597C295.928 597 321 571.928 321 541H316ZM315.878 537.446C315.959 538.62 316 539.805 316 541H321C321 539.691 320.955 538.391 320.866 537.103L315.878 537.446ZM377.347 493.386C361.356 498.89 341.088 511.394 316.618 535.493L320.126 539.056C344.268 515.279 363.918 503.296 378.974 498.114L377.347 493.386ZM395.665 503.196C389.952 500.669 384.59 497.492 379.672 493.759L376.649 497.741C381.872 501.706 387.57 505.082 393.642 507.769L395.665 503.196ZM366.526 607.298C385.87 582.342 402.644 546.344 397.132 505.151L392.176 505.814C397.452 545.239 381.42 579.923 362.575 604.235L366.526 607.298ZM332 656C332 634.016 345.91 615.278 365.413 608.113L363.688 603.42C342.282 611.285 327 631.853 327 656H332ZM383 707C354.833 707 332 684.167 332 656H327C327 686.928 352.072 712 383 712V707ZM434 656C434 684.167 411.167 707 383 707V712C413.928 712 439 686.928 439 656H434ZM422.62 623.884C429.736 632.652 434 643.827 434 656H439C439 642.638 434.315 630.36 426.502 620.733L422.62 623.884ZM448.138 508.227C432.691 535.951 419.509 575.252 422.065 622.444L427.057 622.173C424.561 576.078 437.436 537.707 452.506 510.661L448.138 508.227ZM453.08 505.99C451.947 506.364 450.802 506.713 449.647 507.037L450.997 511.851C452.225 511.507 453.442 511.136 454.647 510.738L453.08 505.99ZM504.284 572.754C489.1 541.322 471.086 520.176 455.514 506.487L452.213 510.242C467.296 523.501 484.896 544.115 499.782 574.929L504.284 572.754ZM501 593C501 586.562 502.192 580.405 504.367 574.737L499.699 572.946C497.308 579.177 496 585.94 496 593H501ZM552 644C523.833 644 501 621.167 501 593H496C496 623.928 521.072 649 552 649V644ZM603 593C603 621.167 580.167 644 552 644V649C582.928 649 608 623.928 608 593H603ZM555.042 542.089C581.792 543.662 603 565.855 603 593H608C608 563.192 584.713 538.826 555.336 537.098L555.042 542.089ZM508.172 506.745C522.437 521.377 539.167 533.233 553.94 541.759L556.439 537.428C541.956 529.07 525.62 517.48 511.753 503.255L508.172 506.745ZM509.962 502.5H505.808V507.5H509.962V502.5ZM555.248 540.205C539.866 531.359 522.266 518.833 507.628 503.286L503.988 506.714C519.048 522.709 537.073 535.521 552.756 544.539L555.248 540.205ZM555.559 540.383L555.248 540.204L552.756 544.539L553.067 544.718L555.559 540.383ZM554.802 540.073L554.443 540.054L554.183 545.047L554.542 545.066L554.802 540.073ZM605 593C605 564.669 582.771 541.53 554.802 540.073L554.542 545.066C579.868 546.385 600 567.343 600 593H605ZM552 646C581.271 646 605 622.271 605 593H600C600 619.51 578.51 641 552 641V646ZM499 593C499 622.271 522.729 646 552 646V641C525.49 641 504 619.51 504 593H499ZM502.739 573.409C500.326 579.471 499 586.082 499 593H504C504 586.725 505.202 580.741 507.384 575.258L502.739 573.409ZM502.982 572.798L502.739 573.409L507.384 575.258L507.628 574.647L502.982 572.798ZM502.766 574.212L503.051 574.804L507.559 572.641L507.274 572.048L502.766 574.212ZM453.546 507.423C469.163 521.002 487.431 542.262 502.766 574.212L507.274 572.048C491.636 539.467 472.944 517.665 456.827 503.65L453.546 507.423ZM452.93 506.887L453.546 507.423L456.827 503.65L456.21 503.113L452.93 506.887ZM454.57 502.5H454.445V507.5H454.57V502.5ZM454.526 507.614L455.254 507.366L453.637 502.634L452.909 502.883L454.526 507.614ZM449.581 509.13C451.251 508.676 452.9 508.17 454.526 507.614L452.909 502.883C451.383 503.404 449.836 503.879 448.268 504.306L449.581 509.13ZM448.975 509.295L449.581 509.13L448.268 504.306L447.662 504.471L448.975 509.295ZM450.19 508.655L450.498 508.107L446.138 505.659L445.831 506.207L450.19 508.655ZM424.089 622.824C421.421 575.542 434.71 536.231 450.19 508.655L445.831 506.207C429.967 534.465 416.367 574.715 419.097 623.106L424.089 622.824ZM424.117 623.316L424.089 622.824L419.097 623.106L419.124 623.597L424.117 623.316ZM423.861 622.243L423.547 621.863L419.694 625.05L420.008 625.43L423.861 622.243ZM436 656C436 643.174 431.443 631.411 423.861 622.243L420.008 625.43C426.876 633.734 431 644.38 431 656H436ZM383 709C412.271 709 436 685.271 436 656H431C431 682.51 409.51 704 383 704V709ZM330 656C330 685.271 353.729 709 383 709V704C356.49 704 335 682.51 335 656H330ZM365.132 606.088C344.653 613.42 330 632.997 330 656H335C335 635.175 348.264 617.438 366.817 610.795L365.132 606.088ZM365.542 605.941L365.132 606.088L366.817 610.795L367.227 610.648L365.542 605.941ZM364.68 606.415L364.413 606.758L368.357 609.831L368.624 609.488L364.68 606.415ZM395.035 504.584C400.819 545.603 384.069 581.533 364.68 606.415L368.624 609.488C388.516 583.961 406.023 546.698 399.986 503.886L395.035 504.584ZM394.917 503.749L395.035 504.584L399.986 503.886L399.868 503.051L394.917 503.749ZM395.63 505.363L396.405 505.696L398.38 501.103L397.605 500.77L395.63 505.363ZM377.826 494.863C383.258 499.071 389.234 502.612 395.63 505.363L397.605 500.77C391.602 498.188 385.99 494.863 380.888 490.91L377.826 494.863ZM377.193 494.372L377.826 494.863L380.888 490.91L380.255 490.42L377.193 494.372ZM378.754 495.021L379.514 494.768L377.934 490.024L377.174 490.277L378.754 495.021ZM317.527 537.406C342.485 512.724 362.924 500.292 378.754 495.021L377.174 490.277C360.376 495.87 339.3 508.841 314.012 533.851L317.527 537.406ZM317.03 537.897L317.527 537.406L314.012 533.851L313.514 534.342L317.03 537.897ZM317.821 536.613L317.764 535.916L312.781 536.324L312.838 537.021L317.821 536.613ZM318 541C318 539.523 317.94 538.06 317.821 536.613L312.838 537.021C312.945 538.333 313 539.659 313 541H318ZM265 594C294.271 594 318 570.271 318 541H313C313 567.51 291.51 589 265 589V594ZM212 541C212 570.271 235.729 594 265 594V589C238.49 589 217 567.51 217 541H212ZM265 488C235.729 488 212 511.729 212 541H217C217 514.49 238.49 493 265 493V488ZM287.274 492.894C280.501 489.753 272.954 488 265 488V493C272.212 493 279.043 494.588 285.17 497.43L287.274 492.894ZM287.771 493.124L287.274 492.894L285.17 497.43L285.667 497.66L287.771 493.124ZM286.59 492.836L286.062 492.98L287.377 497.804L287.906 497.66L286.59 492.836ZM348.995 450.627C331.827 474.383 308.172 486.951 286.59 492.836L287.906 497.66C310.31 491.551 335.058 478.447 353.048 453.556L348.995 450.627ZM349.415 450.047L348.995 450.627L353.048 453.556L353.467 452.976L349.415 450.047ZM348.841 451.474L349.028 452.164L353.854 450.858L353.667 450.168L348.841 451.474ZM346 430C346 437.429 346.988 444.628 348.841 451.474L353.667 450.168C351.929 443.744 351 436.984 351 430H346ZM346.151 424.986C346.051 426.644 346 428.316 346 430H351C351 428.417 351.048 426.845 351.142 425.287L346.151 424.986ZM346.181 424.482L346.151 424.986L351.142 425.287L351.172 424.783L346.181 424.482ZM346.317 425.601L346.598 426.021L350.756 423.244L350.476 422.825L346.317 425.601ZM259.634 371.09C290.578 379.319 326.589 396.055 346.317 425.601L350.476 422.825C329.744 391.776 292.304 374.605 260.919 366.258L259.634 371.09ZM259.241 370.986L259.634 371.09L260.919 366.258L260.526 366.154L259.241 370.986ZM260.157 371.088L260.55 370.979L259.217 366.16L258.825 366.269L260.157 371.088ZM246 373C250.902 373 255.65 372.334 260.157 371.088L258.825 366.269C254.747 367.396 250.447 368 246 368V373ZM193 320C193 349.271 216.729 373 246 373V368C219.49 368 198 346.51 198 320H193ZM246 267C216.729 267 193 290.729 193 320H198C198 293.49 219.49 272 246 272V267ZM299 320C299 290.729 275.271 267 246 267V272C272.51 272 294 293.49 294 320H299ZM298.961 322.057C298.987 321.375 299 320.689 299 320H294C294 320.625 293.988 321.247 293.964 321.867L298.961 322.057ZM298.937 322.672L298.961 322.057L293.964 321.867L293.941 322.481L298.937 322.672ZM298.7 321.344L298.284 320.89L294.594 324.264L295.009 324.718L298.7 321.344ZM377.552 365.845C351.384 359.376 321.25 346.015 298.7 321.344L295.009 324.718C318.434 350.346 349.578 364.08 376.352 370.699L377.552 365.845ZM378.273 366.023L377.552 365.845L376.352 370.699L377.073 370.877L378.273 366.023ZM376.686 366.036L376.107 366.501L379.239 370.399L379.817 369.934L376.686 366.036ZM384.91 360.221C382.046 361.993 379.3 363.936 376.686 366.036L379.817 369.934C382.273 367.962 384.852 366.137 387.541 364.473L384.91 360.221ZM385.419 359.906L384.91 360.221L387.541 364.473L388.05 364.158L385.419 359.906ZM384.469 360.818L384.317 361.398L389.153 362.666L389.305 362.087L384.469 360.818ZM387.278 294.214C391.113 310.582 391.895 332.505 384.469 360.818L389.305 362.087C396.921 333.051 396.182 310.299 392.146 293.073L387.278 294.214ZM387.138 293.616L387.278 294.213L392.146 293.073L392.006 292.475L387.138 293.616ZM387.717 294.831L388.236 295.159L390.908 290.932L390.389 290.604L387.717 294.831ZM363 250C363 268.873 372.866 285.442 387.717 294.831L390.389 290.604C376.926 282.093 368 267.088 368 250H363ZM181 393C163.327 393 149 407.327 149 425H154C154 410.088 166.088 398 181 398V393ZM213 425C213 407.327 198.673 393 181 393V398C195.912 398 208 410.088 208 425H213ZM181 457C198.673 457 213 442.673 213 425H208C208 439.912 195.912 452 181 452V457ZM149 425C149 442.673 163.327 457 181 457V452C166.088 452 154 439.912 154 425H149ZM151 425C151 408.431 164.431 395 181 395V390C161.67 390 146 405.67 146 425H151ZM181 455C164.431 455 151 441.569 151 425H146C146 444.33 161.67 460 181 460V455ZM211 425C211 441.569 197.569 455 181 455V460C200.33 460 216 444.33 216 425H211ZM181 395C197.569 395 211 408.431 211 425H216C216 405.67 200.33 390 181 390V395Z" fill="white"/>
<path d="M417.12 400.56C425.04 400.56 431.44 403.08 436.32 408.12C441.2 413.08 443.64 420.04 443.64 429V468H426.84V431.28C426.84 426 425.52 421.96 422.88 419.16C420.24 416.28 416.64 414.84 412.08 414.84C407.44 414.84 403.76 416.28 401.04 419.16C398.4 421.96 397.08 426 397.08 431.28V468H380.28V401.52H397.08V409.8C399.32 406.92 402.16 404.68 405.6 403.08C409.12 401.4 412.96 400.56 417.12 400.56ZM521.416 433.32C521.416 435.72 521.256 437.88 520.936 439.8H472.336C472.736 444.6 474.416 448.36 477.376 451.08C480.336 453.8 483.976 455.16 488.296 455.16C494.536 455.16 498.976 452.48 501.616 447.12H519.736C517.816 453.52 514.136 458.8 508.696 462.96C503.256 467.04 496.576 469.08 488.656 469.08C482.256 469.08 476.496 467.68 471.376 464.88C466.336 462 462.376 457.96 459.496 452.76C456.696 447.56 455.296 441.56 455.296 434.76C455.296 427.88 456.696 421.84 459.496 416.64C462.296 411.44 466.216 407.44 471.256 404.64C476.296 401.84 482.096 400.44 488.656 400.44C494.976 400.44 500.616 401.8 505.576 404.52C510.616 407.24 514.496 411.12 517.216 416.16C520.016 421.12 521.416 426.84 521.416 433.32ZM504.016 428.52C503.936 424.2 502.376 420.76 499.336 418.2C496.296 415.56 492.576 414.24 488.176 414.24C484.016 414.24 480.496 415.52 477.616 418.08C474.816 420.56 473.096 424.04 472.456 428.52H504.016ZM553.238 415.32V447.48C553.238 449.72 553.758 451.36 554.798 452.4C555.918 453.36 557.758 453.84 560.318 453.84H568.118V468H557.558C543.398 468 536.318 461.12 536.318 447.36V415.32H528.398V401.52H536.318V385.08H553.238V401.52H568.118V415.32H553.238ZM597.002 379.2V468H580.202V379.2H597.002ZM609.28 434.52C609.28 427.8 610.6 421.84 613.24 416.64C615.96 411.44 619.6 407.44 624.16 404.64C628.8 401.84 633.96 400.44 639.64 400.44C644.6 400.44 648.92 401.44 652.6 403.44C656.36 405.44 659.36 407.96 661.6 411V401.52H678.52V468H661.6V458.28C659.44 461.4 656.44 464 652.6 466.08C648.84 468.08 644.48 469.08 639.52 469.08C633.92 469.08 628.8 467.64 624.16 464.76C619.6 461.88 615.96 457.84 613.24 452.64C610.6 447.36 609.28 441.32 609.28 434.52ZM661.6 434.76C661.6 430.68 660.8 427.2 659.2 424.32C657.6 421.36 655.44 419.12 652.72 417.6C650 416 647.08 415.2 643.96 415.2C640.84 415.2 637.96 415.96 635.32 417.48C632.68 419 630.52 421.24 628.84 424.2C627.24 427.08 626.44 430.52 626.44 434.52C626.44 438.52 627.24 442.04 628.84 445.08C630.52 448.04 632.68 450.32 635.32 451.92C638.04 453.52 640.92 454.32 643.96 454.32C647.08 454.32 650 453.56 652.72 452.04C655.44 450.44 657.6 448.2 659.2 445.32C660.8 442.36 661.6 438.84 661.6 434.76ZM711.728 411.24C713.888 408.04 716.848 405.44 720.608 403.44C724.448 401.44 728.808 400.44 733.688 400.44C739.368 400.44 744.488 401.84 749.048 404.64C753.688 407.44 757.328 411.44 759.968 416.64C762.688 421.76 764.048 427.72 764.048 434.52C764.048 441.32 762.688 447.36 759.968 452.64C757.328 457.84 753.688 461.88 749.048 464.76C744.488 467.64 739.368 469.08 733.688 469.08C728.728 469.08 724.368 468.12 720.608 466.2C716.928 464.2 713.968 461.64 711.728 458.52V468H694.928V379.2H711.728V411.24ZM746.888 434.52C746.888 430.52 746.048 427.08 744.368 424.2C742.768 421.24 740.608 419 737.888 417.48C735.248 415.96 732.368 415.2 729.248 415.2C726.208 415.2 723.328 416 720.608 417.6C717.968 419.12 715.808 421.36 714.128 424.32C712.528 427.28 711.728 430.76 711.728 434.76C711.728 438.76 712.528 442.24 714.128 445.2C715.808 448.16 717.968 450.44 720.608 452.04C723.328 453.56 726.208 454.32 729.248 454.32C732.368 454.32 735.248 453.52 737.888 451.92C740.608 450.32 742.768 448.04 744.368 445.08C746.048 442.12 746.888 438.6 746.888 434.52Z" fill="white"/>
</svg>
