<svg width="658" height="510" viewBox="0 0 658 510" fill="none" xmlns="http://www.w3.org/2000/svg">
<path fill-rule="evenodd" clip-rule="evenodd" d="M288.138 99.066C305.786 90.7507 318 72.8018 318 52C318 23.2812 294.719 0 266 0C237.281 0 214 23.2812 214 52C214 70.5164 223.678 86.7723 238.251 95.9854C242.126 112.526 242.9 134.614 235.436 163.072C232.608 164.822 229.895 166.741 227.312 168.816C201.022 162.317 170.687 148.881 147.962 124.019C147.987 123.349 148 122.676 148 122C148 93.2812 124.719 70 96 70C67.2812 70 44 93.2812 44 122C44 150.719 67.2812 174 96 174C100.811 174 105.469 173.347 109.891 172.124C140.923 180.376 177.22 197.199 197.149 227.046C197.05 228.685 197 230.336 197 232C197 239.34 197.976 246.452 199.806 253.213C182.473 277.195 158.6 289.871 136.853 295.801C130.209 292.72 122.806 291 115 291C86.2812 291 63 314.281 63 343C63 371.719 86.2812 395 115 395C143.719 395 167 371.719 167 343C167 341.55 166.941 340.114 166.824 338.695C191.848 313.947 212.414 301.407 228.438 296.072C233.804 300.229 239.707 303.727 246.025 306.444C251.86 347.822 234.958 384.019 215.469 409.029C195.376 416.223 181 435.433 181 458C181 486.719 204.281 510 233 510C261.719 510 285 486.719 285 458C285 445.416 280.53 433.875 273.09 424.88C270.41 377.377 283.761 337.878 299.318 310.165C300.968 309.716 302.597 309.217 304.202 308.668C319.919 322.335 338.272 343.703 353.668 375.779C351.301 381.725 350 388.21 350 395C350 423.719 373.281 447 402 447C430.719 447 454 423.719 454 395C454 367.204 432.19 344.501 404.75 343.071C382.634 330.354 355.986 310.08 339.969 284.164C351.844 270.071 359 251.871 359 232C359 222.619 357.405 213.61 354.472 205.231C369.821 173.622 397.789 138.641 443.695 120.979C447.026 121.649 450.472 122 454 122C482.719 122 506 98.7188 506 70C506 41.2812 482.719 18 454 18C425.281 18 402 41.2812 402 70C402 73.6761 402.381 77.2631 403.107 80.7236C389.371 111.236 363.887 147.295 324.185 165.448C314.908 158.999 304.219 154.439 292.675 152.326C286.713 135.434 284.112 117.098 288.138 99.066ZM31 258C48.1208 258 62 244.121 62 227C62 209.879 48.1208 196 31 196C13.8792 196 0 209.879 0 227C0 244.121 13.8792 258 31 258Z" fill="url(#paint0_linear_7_927)"/>
<g filter="url(#filter0_d_7_927)">
<path d="M270.24 202.32C278.08 202.32 284.32 204.88 288.96 210C293.68 215.04 296.04 222 296.04 230.88V270H275.64V233.64C275.64 229.16 274.48 225.68 272.16 223.2C269.84 220.72 266.72 219.48 262.8 219.48C258.88 219.48 255.76 220.72 253.44 223.2C251.12 225.68 249.96 229.16 249.96 233.64V270H229.44V203.04H249.96V211.92C252.04 208.96 254.84 206.64 258.36 204.96C261.88 203.2 265.84 202.32 270.24 202.32ZM373.419 235.44C373.419 237.36 373.299 239.36 373.059 241.44H326.619C326.939 245.6 328.259 248.8 330.579 251.04C332.979 253.2 335.899 254.28 339.339 254.28C344.459 254.28 348.019 252.12 350.019 247.8H371.859C370.739 252.2 368.699 256.16 365.739 259.68C362.859 263.2 359.219 265.96 354.819 267.96C350.419 269.96 345.499 270.96 340.059 270.96C333.499 270.96 327.659 269.56 322.539 266.76C317.419 263.96 313.419 259.96 310.539 254.76C307.659 249.56 306.219 243.48 306.219 236.52C306.219 229.56 307.619 223.48 310.419 218.28C313.299 213.08 317.299 209.08 322.419 206.28C327.539 203.48 333.419 202.08 340.059 202.08C346.539 202.08 352.299 203.44 357.339 206.16C362.379 208.88 366.299 212.76 369.099 217.8C371.979 222.84 373.419 228.72 373.419 235.44ZM352.419 230.04C352.419 226.52 351.219 223.72 348.819 221.64C346.419 219.56 343.419 218.52 339.819 218.52C336.379 218.52 333.459 219.52 331.059 221.52C328.739 223.52 327.299 226.36 326.739 230.04H352.419ZM421.565 252.6V270H411.125C403.685 270 397.885 268.2 393.725 264.6C389.565 260.92 387.485 254.96 387.485 246.72V220.08H379.325V203.04H387.485V186.72H408.005V203.04H421.445V220.08H408.005V246.96C408.005 248.96 408.485 250.4 409.445 251.28C410.405 252.16 412.005 252.6 414.245 252.6H421.565ZM453.515 181.2V270H432.995V181.2H453.515ZM464.305 236.4C464.305 229.52 465.585 223.48 468.145 218.28C470.785 213.08 474.345 209.08 478.825 206.28C483.305 203.48 488.305 202.08 493.825 202.08C498.545 202.08 502.665 203.04 506.185 204.96C509.785 206.88 512.545 209.4 514.465 212.52V203.04H534.985V270H514.465V260.52C512.465 263.64 509.665 266.16 506.065 268.08C502.545 270 498.425 270.96 493.705 270.96C488.265 270.96 483.305 269.56 478.825 266.76C474.345 263.88 470.785 259.84 468.145 254.64C465.585 249.36 464.305 243.28 464.305 236.4ZM514.465 236.52C514.465 231.4 513.025 227.36 510.145 224.4C507.345 221.44 503.905 219.96 499.825 219.96C495.745 219.96 492.265 221.44 489.385 224.4C486.585 227.28 485.185 231.28 485.185 236.4C485.185 241.52 486.585 245.6 489.385 248.64C492.265 251.6 495.745 253.08 499.825 253.08C503.905 253.08 507.345 251.6 510.145 248.64C513.025 245.68 514.465 241.64 514.465 236.52ZM570.351 212.52C572.271 209.4 575.031 206.88 578.631 204.96C582.231 203.04 586.351 202.08 590.991 202.08C596.511 202.08 601.511 203.48 605.991 206.28C610.471 209.08 613.991 213.08 616.551 218.28C619.191 223.48 620.511 229.52 620.511 236.4C620.511 243.28 619.191 249.36 616.551 254.64C613.991 259.84 610.471 263.88 605.991 266.76C601.511 269.56 596.511 270.96 590.991 270.96C586.271 270.96 582.151 270.04 578.631 268.2C575.111 266.28 572.351 263.76 570.351 260.64V270H549.831V181.2H570.351V212.52ZM599.631 236.4C599.631 231.28 598.191 227.28 595.311 224.4C592.511 221.44 589.031 219.96 584.871 219.96C580.791 219.96 577.311 221.44 574.431 224.4C571.631 227.36 570.231 231.4 570.231 236.52C570.231 241.64 571.631 245.68 574.431 248.64C577.311 251.6 580.791 253.08 584.871 253.08C588.951 253.08 592.431 251.6 595.311 248.64C598.191 245.6 599.631 241.52 599.631 236.4Z" fill="white"/>
</g>
<defs>
<filter id="filter0_d_7_927" x="209.44" y="166.2" width="431.071" height="129.76" filterUnits="userSpaceOnUse" color-interpolation-filters="sRGB">
<feFlood flood-opacity="0" result="BackgroundImageFix"/>
<feColorMatrix in="SourceAlpha" type="matrix" values="0 0 0 0 0 0 0 0 0 0 0 0 0 0 0 0 0 0 127 0" result="hardAlpha"/>
<feOffset dy="5"/>
<feGaussianBlur stdDeviation="10"/>
<feComposite in2="hardAlpha" operator="out"/>
<feColorMatrix type="matrix" values="0 0 0 0 0 0 0 0 0 0 0 0 0 0 0 0 0 0 0.5 0"/>
<feBlend mode="normal" in2="BackgroundImageFix" result="effect1_dropShadow_7_927"/>
<feBlend mode="normal" in="SourceGraphic" in2="effect1_dropShadow_7_927" result="shape"/>
</filter>
<linearGradient id="paint0_linear_7_927" x1="253" y1="0" x2="253" y2="510" gradientUnits="userSpaceOnUse">
<stop stop-color="#EE7D4D"/>
<stop offset="1" stop-color="#01FFE1"/>
</linearGradient>
</defs>
</svg>
